<svg width="100" height="51" viewBox="0 0 100 51" fill="none" xmlns="http://www.w3.org/2000/svg">
<path d="M2.58521 29.5166H5.41812V43.4073H2.58521V29.5166Z" fill="white"/>
<path d="M7.06114 38.648C7.05927 37.6503 7.35342 36.6744 7.90637 35.8439C8.45932 35.0134 9.24621 34.3656 10.1675 33.9825C11.0887 33.5994 12.1029 33.4982 13.0817 33.6917C14.0605 33.8852 14.9599 34.3647 15.666 35.0696C16.3722 35.7744 16.8534 36.6729 17.0487 37.6513C17.2441 38.6297 17.1448 39.6441 16.7634 40.5661C16.382 41.488 15.7357 42.2761 14.9062 42.8306C14.0768 43.3852 13.1015 43.6811 12.1038 43.6811C11.4402 43.6887 10.7819 43.5638 10.1673 43.3136C9.55269 43.0635 8.9942 42.6932 8.52456 42.2244C8.05492 41.7557 7.68357 41.1979 7.43228 40.5837C7.18099 39.9696 7.05481 39.3115 7.06114 38.648ZM14.2945 38.648C14.2834 38.2173 14.1455 37.7994 13.8981 37.4467C13.6507 37.0939 13.3048 36.822 12.9036 36.6648C12.5024 36.5076 12.0638 36.4723 11.6427 36.5631C11.2215 36.6539 10.8365 36.8669 10.5357 37.1754C10.235 37.4839 10.0319 37.8743 9.95181 38.2977C9.87176 38.721 9.91834 39.1586 10.0857 39.5556C10.2531 39.9526 10.5338 40.2915 10.8927 40.5298C11.2517 40.7681 11.6729 40.8953 12.1038 40.8954C12.3985 40.9037 12.6918 40.8508 12.9651 40.74C13.2384 40.6292 13.4858 40.463 13.6917 40.2518C13.8975 40.0406 14.0574 39.7891 14.1611 39.5131C14.2649 39.237 14.3103 38.9425 14.2945 38.648Z" fill="white"/>
<path d="M28.5346 33.8885V42.9349C28.5346 46.1361 26.0322 47.4865 23.5015 47.4865C22.6116 47.5527 21.7206 47.3727 20.9261 46.9663C20.1316 46.5599 19.4643 45.9427 18.9972 45.1824L21.4335 43.7754C21.6268 44.165 21.9327 44.4877 22.3115 44.7015C22.6903 44.9153 23.1246 45.0105 23.5582 44.9746C23.8434 45.0222 24.1358 45.0036 24.4128 44.9202C24.6898 44.8369 24.9439 44.6911 25.1556 44.494C25.3672 44.2969 25.5308 44.0538 25.6337 43.7835C25.7366 43.5132 25.776 43.2229 25.7489 42.9349V42.0567C25.4159 42.4665 24.9909 42.792 24.5086 43.0069C24.0263 43.2218 23.5001 43.3201 22.9727 43.2938C21.6904 43.2938 20.4607 42.7844 19.5539 41.8777C18.6472 40.971 18.1378 39.7412 18.1378 38.4589C18.1378 37.1766 18.6472 35.9469 19.5539 35.0402C20.4607 34.1335 21.6904 33.6241 22.9727 33.6241C23.4998 33.6 24.0252 33.6993 24.5072 33.914C24.9892 34.1288 25.4144 34.4531 25.7489 34.8611V33.9168L28.5346 33.8885ZM25.7489 38.4589C25.7678 37.9997 25.6488 37.5453 25.4074 37.1541C25.1659 36.763 24.813 36.453 24.394 36.2641C23.975 36.0751 23.509 36.0158 23.056 36.0938C22.603 36.1717 22.1837 36.3834 21.852 36.7015C21.5202 37.0197 21.2912 37.4298 21.1944 37.8791C21.0975 38.3284 21.1373 38.7965 21.3086 39.223C21.4799 39.6496 21.7748 40.0151 22.1555 40.2727C22.5362 40.5304 22.9852 40.6682 23.4448 40.6686C23.7449 40.6898 24.046 40.648 24.3288 40.5457C24.6117 40.4434 24.87 40.2831 25.0871 40.0749C25.3041 39.8667 25.4752 39.6153 25.5892 39.337C25.7032 39.0587 25.7576 38.7596 25.7489 38.4589Z" fill="white"/>
<path d="M30.1683 38.648C30.1664 37.6503 30.4606 36.6744 31.0135 35.8439C31.5665 35.0134 32.3534 34.3656 33.2746 33.9825C34.1958 33.5994 35.21 33.4982 36.1888 33.6917C37.1676 33.8852 38.067 34.3647 38.7732 35.0696C39.4793 35.7744 39.9605 36.6729 40.1559 37.6513C40.3512 38.6297 40.2519 39.6441 39.8705 40.5661C39.4891 41.488 38.8428 42.2761 38.0134 42.8306C37.1839 43.3852 36.2086 43.6811 35.2109 43.6811C34.5474 43.6887 33.889 43.5638 33.2744 43.3136C32.6598 43.0635 32.1013 42.6932 31.6317 42.2244C31.1621 41.7557 30.7907 41.1979 30.5394 40.5837C30.2881 39.9696 30.1619 39.3115 30.1683 38.648ZM37.4017 38.648C37.3905 38.2173 37.2526 37.7994 37.0052 37.4467C36.7578 37.0939 36.4119 36.822 36.0107 36.6648C35.6096 36.5076 35.171 36.4723 34.7498 36.5631C34.3286 36.6539 33.9436 36.8669 33.6428 37.1754C33.3421 37.4839 33.139 37.8743 33.0589 38.2977C32.9789 38.721 33.0255 39.1586 33.1928 39.5556C33.3602 39.9526 33.6409 40.2915 33.9998 40.5298C34.3588 40.7681 34.78 40.8953 35.2109 40.8954C35.5041 40.901 35.7953 40.8462 36.0664 40.7342C36.3374 40.6222 36.5825 40.4556 36.7863 40.2447C36.9901 40.0339 37.1482 39.7832 37.2509 39.5085C37.3535 39.2338 37.3984 38.9408 37.3828 38.648H37.4017Z" fill="white"/>
<path d="M41.5662 31.339C41.5662 30.9991 41.667 30.6668 41.8558 30.3842C42.0447 30.1016 42.3131 29.8813 42.6271 29.7512C42.9412 29.6211 43.2867 29.5871 43.6201 29.6534C43.9535 29.7197 44.2597 29.8834 44.5001 30.1237C44.7405 30.3641 44.9041 30.6703 44.9704 31.0037C45.0368 31.3371 45.0027 31.6827 44.8727 31.9967C44.7426 32.3107 44.5223 32.5792 44.2397 32.768C43.957 32.9568 43.6248 33.0576 43.2848 33.0576C42.8298 33.0552 42.3941 32.8733 42.0723 32.5515C41.7505 32.2298 41.5687 31.7941 41.5662 31.339ZM41.8589 33.8886H44.6918V43.4072H41.8589V33.8886Z" fill="white"/>
<path d="M57.0431 38.648C57.0774 39.2772 56.987 39.907 56.777 40.5011C56.5669 41.0952 56.2415 41.6419 55.8193 42.1097C55.3971 42.5775 54.8866 42.9572 54.3171 43.2269C53.7476 43.4966 53.1304 43.651 52.501 43.6812C51.9726 43.7065 51.445 43.6157 50.9556 43.415C50.4661 43.2143 50.0266 42.9087 49.6681 42.5197V47.2412H46.8352V33.8887H49.6681V34.7858C50.0266 34.3968 50.4661 34.0912 50.9556 33.8905C51.445 33.6898 51.9726 33.599 52.501 33.6243C53.1296 33.6545 53.746 33.8086 54.3148 34.0777C54.8837 34.3469 55.3938 34.7257 55.8158 35.1925C56.2379 35.6593 56.5635 36.2048 56.7741 36.7978C56.9848 37.3908 57.0762 38.0196 57.0431 38.648ZM54.2102 38.648C54.199 38.2048 54.058 37.7746 53.8047 37.4107C53.5514 37.0469 53.197 36.7652 52.7853 36.6008C52.3736 36.4363 51.9226 36.3962 51.4884 36.4855C51.0541 36.5747 50.6555 36.7894 50.342 37.1029C50.0285 37.4164 49.8139 37.8149 49.7246 38.2492C49.6354 38.6835 49.6755 39.1344 49.8399 39.5461C50.0044 39.9578 50.286 40.3123 50.6499 40.5655C51.0138 40.8188 51.444 40.9598 51.8872 40.971C52.1965 40.9907 52.5064 40.9439 52.7962 40.8339C53.0859 40.7238 53.3487 40.553 53.567 40.333C53.7852 40.1129 53.9539 39.8487 54.0616 39.5581C54.1692 39.2675 54.2135 38.9572 54.1913 38.648H54.2102Z" fill="white"/>
<path d="M65.863 40.5553C65.863 42.7461 63.9744 43.6809 61.8969 43.6809C61.067 43.7544 60.2341 43.5778 59.5054 43.1739C58.7768 42.77 58.1856 42.1573 57.8081 41.4146L60.2822 40.0076C60.3826 40.3511 60.5976 40.6499 60.8913 40.8543C61.1851 41.0587 61.5399 41.1565 61.8969 41.1313C62.5863 41.1313 62.9262 40.9141 62.9262 40.5364C62.9262 39.4882 58.2047 40.0454 58.2047 36.7592C58.2047 34.6817 59.9611 33.6335 61.9819 33.6335C62.7276 33.6109 63.4658 33.788 64.12 34.1467C64.7742 34.5053 65.3205 35.0324 65.7025 35.6732L63.219 36.9764C63.1093 36.727 62.9295 36.5148 62.7015 36.3656C62.4735 36.2164 62.2072 36.1366 61.9347 36.1359C61.4437 36.1359 61.1415 36.3248 61.1415 36.6742C61.1793 37.7601 65.863 37.033 65.863 40.5553Z" fill="white"/>
<path d="M76.2881 33.8887V43.4073H73.4551V42.5197C73.1256 42.9141 72.7074 43.2249 72.2347 43.4268C71.7621 43.6287 71.2483 43.7158 70.7355 43.6812C68.8469 43.6812 67.1755 42.3119 67.1755 39.734V33.8887H70.0084V39.3185C69.9835 39.5499 70.0105 39.7839 70.0873 40.0036C70.1641 40.2233 70.2888 40.4231 70.4525 40.5886C70.6161 40.7541 70.8146 40.881 71.0334 40.9602C71.2522 41.0395 71.486 41.0689 71.7176 41.0466C72.7564 41.0466 73.4835 40.4422 73.4835 39.0919V33.8887H76.2881Z" fill="white"/>
<path d="M92.6622 37.5714V43.4072H89.8292V37.817C89.8292 36.8727 89.3665 36.2494 88.46 36.2494C87.5535 36.2494 86.968 36.9199 86.968 38.0436V43.4072H84.1351V37.817C84.1351 36.8727 83.6818 36.2494 82.7658 36.2494C81.8499 36.2494 81.2833 36.9199 81.2833 38.0436V43.4072H78.4504V33.8887H81.2833V34.7669C81.5794 34.379 81.9677 34.0713 82.413 33.8718C82.8583 33.6722 83.3464 33.5871 83.8329 33.6243C84.3215 33.6005 84.808 33.7038 85.2448 33.9238C85.6817 34.1439 86.0541 34.4734 86.3259 34.8802C86.6419 34.4549 87.0606 34.1166 87.5428 33.897C88.025 33.6774 88.555 33.5835 89.0832 33.6243C91.2363 33.6243 92.6622 35.1918 92.6622 37.5714Z" fill="white"/>
<path d="M95.0798 33.8321C96.248 33.8321 97.195 32.885 97.195 31.7168C97.195 30.5486 96.248 29.6016 95.0798 29.6016C93.9116 29.6016 92.9645 30.5486 92.9645 31.7168C92.9645 32.885 93.9116 33.8321 95.0798 33.8321Z" fill="white"/>
<path d="M34.6443 22.3115C40.1151 22.3115 44.55 17.8765 44.55 12.4057C44.55 6.93496 40.1151 2.5 34.6443 2.5C29.1735 2.5 24.7385 6.93496 24.7385 12.4057C24.7385 17.8765 29.1735 22.3115 34.6443 22.3115Z" fill="white"/>
<path d="M56.7882 22.3115C62.259 22.3115 66.6939 17.8765 66.6939 12.4057C66.6939 6.93496 62.259 2.5 56.7882 2.5C51.3174 2.5 46.8824 6.93496 46.8824 12.4057C46.8824 17.8765 51.3174 22.3115 56.7882 22.3115Z" fill="white"/>
<path d="M22.406 2.5H2.604V22.302H22.406V2.5Z" fill="white"/>
</svg>
